<svg xmlns="http://www.w3.org/2000/svg" viewBox="0 0 160 190" role="img" aria-label="Paróquia de Nossa Senhora da Guia">
  <defs>
    <linearGradient id="shieldBlue" x1="0" y1="0" x2="1" y2="1">
      <stop offset="0" stop-color="#34369c"/>
      <stop offset="0.55" stop-color="#0075b8"/>
      <stop offset="1" stop-color="#2f3192"/>
    </linearGradient>
    <linearGradient id="ribbon" x1="0" y1="0" x2="1" y2="0">
      <stop offset="0" stop-color="#cda034"/>
      <stop offset="0.5" stop-color="#fff7de"/>
      <stop offset="1" stop-color="#cda034"/>
    </linearGradient>
  </defs>
  <path d="M80 5v170" stroke="#ffd21a" stroke-width="7" stroke-linecap="round"/>
  <path d="M62 24h36M80 6v52" stroke="#ffd21a" stroke-width="11" stroke-linecap="round"/>
  <path d="M62 24h36M80 6v52" stroke="#373737" stroke-width="14" stroke-linecap="round" opacity=".25"/>
  <path d="M28 46h104v69c0 34-23 57-52 61-29-4-52-27-52-61z" fill="url(#shieldBlue)" stroke="#202020" stroke-width="2"/>
  <path d="M31 128 119 46h22L43 146z" fill="#ec1825"/>
  <path d="M80 58v91M55 83h50" stroke="#fff" stroke-width="8"/>
  <path d="M44 62 50 76 65 80 50 84 44 98 38 84 23 80 38 76z" fill="#ffd21a" stroke="#27306f" stroke-width="1.5"/>
  <text x="103" y="127" fill="#ffd21a" font-family="serif" font-size="19" font-weight="700">M</text>
  <path d="M16 118c28 27 100 27 128 0 4 11 1 24-8 33-35 28-77 28-112 0-9-9-12-22-8-33z" fill="url(#ribbon)" stroke="#292929" stroke-width="2"/>
  <text x="80" y="151" text-anchor="middle" font-family="serif" font-size="10" fill="#202020">NOSSA SENHORA DA GUIA</text>
</svg>
